<?xml version="1.0" encoding="UTF-8"?>
<svg xmlns="http://www.w3.org/2000/svg" width="500" height="370" viewBox="0 0 500 370">
<defs>
  <marker id="arr" markerWidth="10" markerHeight="8" refX="9" refY="4" orient="auto">
    <polygon points="0 0, 10 4, 0 8" fill="#000000"/>
  </marker>
</defs>
<rect width="100%" height="100%" fill="#B8D4E8"/>
<circle cx="250" cy="24" r="7" fill="#000000"/><line x1="250" y1="31" x2="250" y2="48" stroke="#000000" stroke-width="1.2" marker-end="url(#arr)"/><text x="260" y="35.5" text-anchor="start" font-family="Arial,sans-serif" font-size="10" fill="#000"><tspan x="260" dy="0">Authentification</tspan></text><rect x="90" y="72" width="320" height="52" rx="14" ry="14" fill="#fff" stroke="#000000" stroke-width="1.3"/><text x="250" y="95" text-anchor="middle" font-family="Arial,sans-serif" font-size="10" fill="#000"><tspan x="250" dy="0">Saisir le login et le mot de</tspan><tspan x="250" dy="12">passe</tspan></text><line x1="250" y1="124" x2="250" y2="140" stroke="#000000" stroke-width="1.2" marker-end="url(#arr)"/><polygon points="250,140 298,188 250,236 202,188" fill="#E53935" stroke="#000000" stroke-width="1.2"/><text x="250" y="192" text-anchor="middle" font-family="Arial,sans-serif" font-size="9" fill="#000"><tspan x="250" dy="0">Mot de passe</tspan><tspan x="250" dy="11">correct ?</tspan></text><line x1="202" y1="188" x2="170" y2="188" stroke="#000000" stroke-width="1.2" marker-end="url(#arr)"/><text x="196" y="184" text-anchor="start" font-family="Arial,sans-serif" font-size="10" fill="#000"><tspan x="196" dy="0">NON</tspan></text><rect x="20" y="168" width="150" height="40" rx="14" ry="14" fill="#fff" stroke="#000000" stroke-width="1.3"/><text x="95" y="192" text-anchor="middle" font-family="Arial,sans-serif" font-size="10" fill="#000"><tspan x="95" dy="0">Afficher le message d'erreur</tspan></text><line x1="95" y1="208" x2="90" y2="98" stroke="#000000" stroke-width="1.2" marker-end="url(#arr)"/><line x1="250" y1="236" x2="250" y2="268" stroke="#000000" stroke-width="1.2" marker-end="url(#arr)"/><text x="260" y="248" text-anchor="start" font-family="Arial,sans-serif" font-size="10" fill="#000"><tspan x="260" dy="0">OUI</tspan></text><rect x="90" y="268" width="320" height="44" rx="14" ry="14" fill="#fff" stroke="#000000" stroke-width="1.3"/><text x="250" y="294" text-anchor="middle" font-family="Arial,sans-serif" font-size="10" fill="#000"><tspan x="250" dy="0">Accéder à la page d'accueil</tspan></text><line x1="250" y1="312" x2="250" y2="338" stroke="#000000" stroke-width="1.2" marker-end="url(#arr)"/><circle cx="250" cy="338" r="7" fill="none" stroke="#000000" stroke-width="1.5"/><circle cx="250" cy="338" r="4" fill="#000000"/>
</svg>