<?xml version="1.0" encoding="UTF-8"?>
<svg xmlns="http://www.w3.org/2000/svg" width="620" height="378" viewBox="0 0 620 378">
<defs>
  <marker id="arr" markerWidth="10" markerHeight="8" refX="9" refY="4" orient="auto">
    <polygon points="0 0, 10 4, 0 8" fill="#000000"/>
  </marker>
</defs>
<rect width="100%" height="100%" fill="#B8D4E8"/>
<circle cx="310" cy="24" r="7" fill="#000000"/><line x1="310" y1="31" x2="310" y2="48" stroke="#000000" stroke-width="1.2" marker-end="url(#arr)"/><text x="320" y="35.5" text-anchor="start" font-family="Arial,sans-serif" font-size="10" fill="#000"><tspan x="320" dy="0">Gérer les rubriques</tspan></text><rect x="130" y="48" width="360" height="46" rx="14" ry="14" fill="#fff" stroke="#000000" stroke-width="1.3"/><text x="310" y="68" text-anchor="middle" font-family="Arial,sans-serif" font-size="10" fill="#000"><tspan x="310" dy="0">Cliquer sur le bouton Gérer</tspan><tspan x="310" dy="12">les rubriques</tspan></text><line x1="310" y1="92" x2="310" y2="108" stroke="#000000" stroke-width="1.2" marker-end="url(#arr)"/><rect x="130" y="108" width="360" height="60" rx="14" ry="14" fill="#fff" stroke="#000000" stroke-width="1.3"/><text x="310" y="128" text-anchor="middle" font-family="Arial,sans-serif" font-size="10" fill="#000"><tspan x="310" dy="0">Afficher les rubriques avec</tspan><tspan x="310" dy="12">les options créer, payer,</tspan><tspan x="310" dy="12">retirer</tspan></text><line x1="310" y1="160" x2="310" y2="148" stroke="#000000" stroke-width="1.2" marker-end="url(#arr)"/><rect x="130" y="148" width="360" height="5" fill="#000000"/><line x1="310" y1="153" x2="100" y2="172" stroke="#000000" stroke-width="1.2" marker-end="url(#arr)"/><rect x="22" y="172" width="156" height="40" rx="14" ry="14" fill="#fff" stroke="#000000" stroke-width="1.3"/><text x="100" y="196" text-anchor="middle" font-family="Arial,sans-serif" font-size="10" fill="#000"><tspan x="100" dy="0">Créer une rubrique</tspan></text><line x1="100" y1="212" x2="100" y2="248" stroke="#000000" stroke-width="1.2" marker-end="url(#arr)"/><line x1="310" y1="153" x2="310" y2="172" stroke="#000000" stroke-width="1.2" marker-end="url(#arr)"/><rect x="232" y="172" width="156" height="40" rx="14" ry="14" fill="#fff" stroke="#000000" stroke-width="1.3"/><text x="310" y="196" text-anchor="middle" font-family="Arial,sans-serif" font-size="10" fill="#000"><tspan x="310" dy="0">Enregistrer paiement</tspan></text><line x1="310" y1="212" x2="310" y2="248" stroke="#000000" stroke-width="1.2" marker-end="url(#arr)"/><line x1="310" y1="153" x2="520" y2="172" stroke="#000000" stroke-width="1.2" marker-end="url(#arr)"/><rect x="442" y="172" width="156" height="40" rx="14" ry="14" fill="#fff" stroke="#000000" stroke-width="1.3"/><text x="520" y="196" text-anchor="middle" font-family="Arial,sans-serif" font-size="10" fill="#000"><tspan x="520" dy="0">Effectuer retrait</tspan></text><line x1="520" y1="212" x2="520" y2="248" stroke="#000000" stroke-width="1.2" marker-end="url(#arr)"/><rect x="130" y="248" width="360" height="5" fill="#000000"/><line x1="310" y1="253" x2="310" y2="278" stroke="#000000" stroke-width="1.2" marker-end="url(#arr)"/><rect x="130" y="278" width="360" height="46" rx="14" ry="14" fill="#fff" stroke="#000000" stroke-width="1.3"/><text x="310" y="298" text-anchor="middle" font-family="Arial,sans-serif" font-size="10" fill="#000"><tspan x="310" dy="0">Mettre à jour la caisse</tspan><tspan x="310" dy="12">rubrique</tspan></text><line x1="310" y1="322" x2="310" y2="346" stroke="#000000" stroke-width="1.2" marker-end="url(#arr)"/><circle cx="310" cy="346" r="7" fill="none" stroke="#000000" stroke-width="1.5"/><circle cx="310" cy="346" r="4" fill="#000000"/>
</svg>