<?xml version="1.0" encoding="UTF-8"?>
<svg xmlns="http://www.w3.org/2000/svg" width="640" height="568" viewBox="0 0 640 568">
<defs>
  <marker id="arr" markerWidth="10" markerHeight="8" refX="9" refY="4" orient="auto">
    <polygon points="0 0, 10 4, 0 8" fill="#000000"/>
  </marker>
</defs>
<rect width="100%" height="100%" fill="#B8D4E8"/>
<circle cx="320" cy="24" r="7" fill="#000000"/><line x1="320" y1="31" x2="320" y2="48" stroke="#000000" stroke-width="1.2" marker-end="url(#arr)"/><text x="330" y="35.5" text-anchor="start" font-family="Arial,sans-serif" font-size="10" fill="#000"><tspan x="330" dy="0">Gérer les membres</tspan></text><rect x="130" y="48" width="380" height="46" rx="14" ry="14" fill="#fff" stroke="#000000" stroke-width="1.3"/><text x="320" y="68" text-anchor="middle" font-family="Arial,sans-serif" font-size="10" fill="#000"><tspan x="320" dy="0">Cliquer sur le bouton Gérer</tspan><tspan x="320" dy="12">les membres</tspan></text><line x1="320" y1="92" x2="320" y2="108" stroke="#000000" stroke-width="1.2" marker-end="url(#arr)"/><rect x="130" y="108" width="380" height="60" rx="14" ry="14" fill="#fff" stroke="#000000" stroke-width="1.3"/><text x="320" y="128" text-anchor="middle" font-family="Arial,sans-serif" font-size="10" fill="#000"><tspan x="320" dy="0">Afficher la liste des membres</tspan><tspan x="320" dy="12">avec les boutons ajouter,</tspan><tspan x="320" dy="12">modifier, supprimer</tspan></text><line x1="320" y1="160" x2="320" y2="168" stroke="#000000" stroke-width="1.2" marker-end="url(#arr)"/><rect x="130" y="168" width="380" height="5" fill="#000000"/><line x1="320" y1="173" x2="90" y2="192" stroke="#000000" stroke-width="1.2" marker-end="url(#arr)"/><rect x="12" y="192" width="156" height="40" rx="14" ry="14" fill="#fff" stroke="#000000" stroke-width="1.3"/><text x="90" y="216" text-anchor="middle" font-family="Arial,sans-serif" font-size="10" fill="#000"><tspan x="90" dy="0">Inviter un membre</tspan></text><line x1="90" y1="232" x2="90" y2="248" stroke="#000000" stroke-width="1.2" marker-end="url(#arr)"/><line x1="320" y1="173" x2="320" y2="192" stroke="#000000" stroke-width="1.2" marker-end="url(#arr)"/><rect x="242" y="192" width="156" height="40" rx="14" ry="14" fill="#fff" stroke="#000000" stroke-width="1.3"/><text x="320" y="216" text-anchor="middle" font-family="Arial,sans-serif" font-size="10" fill="#000"><tspan x="320" dy="0">Promouvoir un membre</tspan></text><line x1="320" y1="232" x2="320" y2="248" stroke="#000000" stroke-width="1.2" marker-end="url(#arr)"/><line x1="320" y1="173" x2="550" y2="192" stroke="#000000" stroke-width="1.2" marker-end="url(#arr)"/><rect x="472" y="192" width="156" height="40" rx="14" ry="14" fill="#fff" stroke="#000000" stroke-width="1.3"/><text x="550" y="216" text-anchor="middle" font-family="Arial,sans-serif" font-size="10" fill="#000"><tspan x="550" dy="0">Exclure un membre</tspan></text><line x1="550" y1="232" x2="550" y2="248" stroke="#000000" stroke-width="1.2" marker-end="url(#arr)"/><rect x="130" y="248" width="380" height="5" fill="#000000"/><line x1="320" y1="253" x2="320" y2="268" stroke="#000000" stroke-width="1.2" marker-end="url(#arr)"/><rect x="130" y="268" width="380" height="46" rx="14" ry="14" fill="#fff" stroke="#000000" stroke-width="1.3"/><text x="320" y="288" text-anchor="middle" font-family="Arial,sans-serif" font-size="10" fill="#000"><tspan x="320" dy="0">Saisir et valider le</tspan><tspan x="320" dy="12">formulaire</tspan></text><line x1="320" y1="312" x2="320" y2="330" stroke="#000000" stroke-width="1.2" marker-end="url(#arr)"/><polygon points="320,330 368,378 320,426 272,378" fill="#E53935" stroke="#000000" stroke-width="1.2"/><text x="320" y="382" text-anchor="middle" font-family="Arial,sans-serif" font-size="9" fill="#000"><tspan x="320" dy="0">Données valides</tspan><tspan x="320" dy="11">?</tspan></text><line x1="272" y1="378" x2="30" y2="378" stroke="#000000" stroke-width="1.2" marker-end="url(#arr)"/><text x="161" y="374" text-anchor="start" font-family="Arial,sans-serif" font-size="10" fill="#000"><tspan x="161" dy="0">NON</tspan></text><rect x="30" y="358" width="150" height="40" rx="14" ry="14" fill="#fff" stroke="#000000" stroke-width="1.3"/><text x="105" y="382" text-anchor="middle" font-family="Arial,sans-serif" font-size="10" fill="#000"><tspan x="105" dy="0">Afficher le message d'erreur</tspan></text><line x1="105" y1="398" x2="130" y2="290" stroke="#000000" stroke-width="1.2" marker-end="url(#arr)"/><line x1="320" y1="426" x2="320" y2="468" stroke="#000000" stroke-width="1.2" marker-end="url(#arr)"/><text x="330" y="443" text-anchor="start" font-family="Arial,sans-serif" font-size="10" fill="#000"><tspan x="330" dy="0">OUI</tspan></text><rect x="130" y="468" width="380" height="48" rx="14" ry="14" fill="#fff" stroke="#000000" stroke-width="1.3"/><text x="320" y="489" text-anchor="middle" font-family="Arial,sans-serif" font-size="10" fill="#000"><tspan x="320" dy="0">Mettre à jour la liste et</tspan><tspan x="320" dy="12">notifier le membre</tspan></text><line x1="320" y1="516" x2="320" y2="538" stroke="#000000" stroke-width="1.2" marker-end="url(#arr)"/><circle cx="320" cy="538" r="7" fill="none" stroke="#000000" stroke-width="1.5"/><circle cx="320" cy="538" r="4" fill="#000000"/>
</svg>