<?xml version="1.0" encoding="UTF-8"?>
<svg xmlns="http://www.w3.org/2000/svg" width="520" height="418" viewBox="0 0 520 418">
<defs>
  <marker id="arr" markerWidth="10" markerHeight="8" refX="9" refY="4" orient="auto">
    <polygon points="0 0, 10 4, 0 8" fill="#000000"/>
  </marker>
</defs>
<rect width="100%" height="100%" fill="#B8D4E8"/>
<circle cx="260" cy="24" r="7" fill="#000000"/><line x1="260" y1="38" x2="260" y2="54" stroke="#000000" stroke-width="1.2" marker-end="url(#arr)"/><text x="270" y="42" text-anchor="start" font-family="Arial,sans-serif" font-size="10" fill="#000"><tspan x="270" dy="0">Effectuer un paiement</tspan></text><rect x="90" y="54" width="340" height="46" rx="14" ry="14" fill="#fff" stroke="#000000" stroke-width="1.3"/><text x="260" y="74" text-anchor="middle" font-family="Arial,sans-serif" font-size="10" fill="#000"><tspan x="260" dy="0">Initier le paiement Mobile</tspan><tspan x="260" dy="12">Money</tspan></text><line x1="260" y1="100" x2="260" y2="118" stroke="#000000" stroke-width="1.2" marker-end="url(#arr)"/><rect x="90" y="118" width="340" height="46" rx="14" ry="14" fill="#fff" stroke="#000000" stroke-width="1.3"/><text x="260" y="138" text-anchor="middle" font-family="Arial,sans-serif" font-size="10" fill="#000"><tspan x="260" dy="0">Attendre la confirmation de</tspan><tspan x="260" dy="12">l'opérateur</tspan></text><line x1="260" y1="164" x2="260" y2="182" stroke="#000000" stroke-width="1.2" marker-end="url(#arr)"/><polygon points="260,182 308,230 260,278 212,230" fill="#E53935" stroke="#000000" stroke-width="1.2"/><text x="260" y="234" text-anchor="middle" font-family="Arial,sans-serif" font-size="9" fill="#000"><tspan x="260" dy="0">Paiement réussi</tspan><tspan x="260" dy="11">?</tspan></text><line x1="212" y1="230" x2="40" y2="230" stroke="#000000" stroke-width="1.2" marker-end="url(#arr)"/><text x="136" y="226" text-anchor="start" font-family="Arial,sans-serif" font-size="10" fill="#000"><tspan x="136" dy="0">NON</tspan></text><rect x="40" y="210" width="140" height="40" rx="14" ry="14" fill="#fff" stroke="#000000" stroke-width="1.3"/><text x="110" y="234" text-anchor="middle" font-family="Arial,sans-serif" font-size="10" fill="#000"><tspan x="110" dy="0">Afficher message d'échec</tspan></text><line x1="260" y1="278" x2="260" y2="318" stroke="#000000" stroke-width="1.2" marker-end="url(#arr)"/><text x="270" y="294" text-anchor="start" font-family="Arial,sans-serif" font-size="10" fill="#000"><tspan x="270" dy="0">OUI</tspan></text><rect x="90" y="318" width="340" height="46" rx="14" ry="14" fill="#fff" stroke="#000000" stroke-width="1.3"/><text x="260" y="338" text-anchor="middle" font-family="Arial,sans-serif" font-size="10" fill="#000"><tspan x="260" dy="0">Finaliser la transaction et</tspan><tspan x="260" dy="12">mettre à jour les caisses</tspan></text><line x1="260" y1="362" x2="260" y2="386" stroke="#000000" stroke-width="1.2" marker-end="url(#arr)"/><circle cx="260" cy="386" r="7" fill="none" stroke="#000000" stroke-width="1.5"/><circle cx="260" cy="386" r="4" fill="#000000"/>
</svg>