<?xml version="1.0" encoding="UTF-8"?>
<svg xmlns="http://www.w3.org/2000/svg" width="520" height="416" viewBox="0 0 520 416">
<defs>
  <marker id="arr" markerWidth="10" markerHeight="8" refX="9" refY="4" orient="auto">
    <polygon points="0 0, 10 4, 0 8" fill="#000000"/>
  </marker>
</defs>
<rect width="100%" height="100%" fill="#B8D4E8"/>
<circle cx="260" cy="24" r="7" fill="#000000"/><line x1="260" y1="38" x2="260" y2="54" stroke="#000000" stroke-width="1.2" marker-end="url(#arr)"/><text x="270" y="42" text-anchor="start" font-family="Arial,sans-serif" font-size="10" fill="#000"><tspan x="270" dy="0">Gérer l'épargne</tspan></text><rect x="90" y="54" width="340" height="44" rx="14" ry="14" fill="#fff" stroke="#000000" stroke-width="1.3"/><text x="260" y="80" text-anchor="middle" font-family="Arial,sans-serif" font-size="10" fill="#000"><tspan x="260" dy="0">Accéder au module Épargne</tspan></text><line x1="260" y1="98" x2="260" y2="116" stroke="#000000" stroke-width="1.2" marker-end="url(#arr)"/><rect x="90" y="116" width="340" height="46" rx="14" ry="14" fill="#fff" stroke="#000000" stroke-width="1.3"/><text x="260" y="136" text-anchor="middle" font-family="Arial,sans-serif" font-size="10" fill="#000"><tspan x="260" dy="0">Choisir dépôt, retrait ou</tspan><tspan x="260" dy="12">signalement</tspan></text><line x1="260" y1="162" x2="260" y2="180" stroke="#000000" stroke-width="1.2" marker-end="url(#arr)"/><polygon points="260,180 308,228 260,276 212,228" fill="#E53935" stroke="#000000" stroke-width="1.2"/><text x="260" y="232" text-anchor="middle" font-family="Arial,sans-serif" font-size="9" fill="#000"><tspan x="260" dy="0">Opération valide</tspan><tspan x="260" dy="11">?</tspan></text><line x1="212" y1="228" x2="40" y2="228" stroke="#000000" stroke-width="1.2" marker-end="url(#arr)"/><text x="136" y="224" text-anchor="start" font-family="Arial,sans-serif" font-size="10" fill="#000"><tspan x="136" dy="0">NON</tspan></text><rect x="40" y="208" width="140" height="40" rx="14" ry="14" fill="#fff" stroke="#000000" stroke-width="1.3"/><text x="110" y="232" text-anchor="middle" font-family="Arial,sans-serif" font-size="10" fill="#000"><tspan x="110" dy="0">Afficher message d'erreur</tspan></text><line x1="260" y1="276" x2="260" y2="316" stroke="#000000" stroke-width="1.2" marker-end="url(#arr)"/><text x="270" y="292" text-anchor="start" font-family="Arial,sans-serif" font-size="10" fill="#000"><tspan x="270" dy="0">OUI</tspan></text><rect x="90" y="316" width="340" height="46" rx="14" ry="14" fill="#fff" stroke="#000000" stroke-width="1.3"/><text x="260" y="336" text-anchor="middle" font-family="Arial,sans-serif" font-size="10" fill="#000"><tspan x="260" dy="0">Mettre à jour le solde et</tspan><tspan x="260" dy="12">l'historique</tspan></text><line x1="260" y1="360" x2="260" y2="384" stroke="#000000" stroke-width="1.2" marker-end="url(#arr)"/><circle cx="260" cy="384" r="7" fill="none" stroke="#000000" stroke-width="1.5"/><circle cx="260" cy="384" r="4" fill="#000000"/>
</svg>