<?xml version="1.0" encoding="UTF-8"?>
<svg xmlns="http://www.w3.org/2000/svg" width="720" height="410" viewBox="0 0 720 410">
<defs>
  <marker id="arr" markerWidth="10" markerHeight="8" refX="9" refY="4" orient="auto">
    <polygon points="0 0, 10 4, 0 8" fill="#000000"/>
  </marker>
</defs>
<rect width="100%" height="100%" fill="#ffffff"/>
<rect x="30" y="40" width="115" height="83" fill="#fff" stroke="#000000" stroke-width="1.2"/>
<line x1="30" y1="66" x2="145" y2="66" stroke="#000000"/>
<text x="87.5" y="57" text-anchor="middle" font-family="Arial" font-size="11" font-weight="bold">User</text><text x="38" y="82" font-family="Arial" font-size="10">+ id_user</text><text x="38" y="97" font-family="Arial" font-size="10">+ nom, prenom</text><text x="38" y="112" font-family="Arial" font-size="10">+ email</text>
<rect x="175" y="40" width="140" height="83" fill="#fff" stroke="#000000" stroke-width="1.2"/>
<line x1="175" y1="66" x2="315" y2="66" stroke="#000000"/>
<text x="245" y="57" text-anchor="middle" font-family="Arial" font-size="11" font-weight="bold">MembreGroupe</text><text x="183" y="82" font-family="Arial" font-size="10">+ role</text><text x="183" y="97" font-family="Arial" font-size="10">+ statut_adhesion</text><text x="183" y="112" font-family="Arial" font-size="10">+ statut_visuel</text>
<rect x="360" y="40" width="125" height="83" fill="#fff" stroke="#000000" stroke-width="1.2"/>
<line x1="360" y1="66" x2="485" y2="66" stroke="#000000"/>
<text x="422.5" y="57" text-anchor="middle" font-family="Arial" font-size="11" font-weight="bold">Groupes</text><text x="368" y="82" font-family="Arial" font-size="10">+ id_groupe</text><text x="368" y="97" font-family="Arial" font-size="10">+ nom</text><text x="368" y="112" font-family="Arial" font-size="10">+ devise</text>
<rect x="530" y="40" width="130" height="68" fill="#fff" stroke="#000000" stroke-width="1.2"/>
<line x1="530" y1="66" x2="660" y2="66" stroke="#000000"/>
<text x="595" y="57" text-anchor="middle" font-family="Arial" font-size="11" font-weight="bold">CycleTontine</text><text x="538" y="82" font-family="Arial" font-size="10">+ montant_cotisation</text><text x="538" y="97" font-family="Arial" font-size="10">+ duree_tour</text>
<rect x="530" y="165" width="130" height="83" fill="#fff" stroke="#000000" stroke-width="1.2"/>
<line x1="530" y1="191" x2="660" y2="191" stroke="#000000"/>
<text x="595" y="182" text-anchor="middle" font-family="Arial" font-size="11" font-weight="bold">Cotisations</text><text x="538" y="207" font-family="Arial" font-size="10">+ montant</text><text x="538" y="222" font-family="Arial" font-size="10">+ numero_tour</text><text x="538" y="237" font-family="Arial" font-size="10">+ date_echeance</text>
<rect x="280" y="165" width="145" height="83" fill="#fff" stroke="#000000" stroke-width="1.2"/>
<line x1="280" y1="191" x2="425" y2="191" stroke="#000000"/>
<text x="352.5" y="182" text-anchor="middle" font-family="Arial" font-size="11" font-weight="bold">RubriqueCotisation</text><text x="288" y="207" font-family="Arial" font-size="10">+ nom</text><text x="288" y="222" font-family="Arial" font-size="10">+ montant_fixe</text><text x="288" y="237" font-family="Arial" font-size="10">+ type_rubrique</text>
<rect x="445" y="165" width="115" height="83" fill="#fff" stroke="#000000" stroke-width="1.2"/>
<line x1="445" y1="191" x2="560" y2="191" stroke="#000000"/>
<text x="502.5" y="182" text-anchor="middle" font-family="Arial" font-size="11" font-weight="bold">Reunion</text><text x="453" y="207" font-family="Arial" font-size="10">+ titre</text><text x="453" y="222" font-family="Arial" font-size="10">+ date_reunion</text><text x="453" y="237" font-family="Arial" font-size="10">+ montant_amende</text>
<rect x="175" y="165" width="135" height="83" fill="#fff" stroke="#000000" stroke-width="1.2"/>
<line x1="175" y1="191" x2="310" y2="191" stroke="#000000"/>
<text x="242.5" y="182" text-anchor="middle" font-family="Arial" font-size="11" font-weight="bold">CompteEpargne</text><text x="183" y="207" font-family="Arial" font-size="10">+ numero_compte</text><text x="183" y="222" font-family="Arial" font-size="10">+ solde_actuel</text><text x="183" y="237" font-family="Arial" font-size="10">+ statut</text>
<rect x="360" y="290" width="140" height="68" fill="#fff" stroke="#000000" stroke-width="1.2"/>
<line x1="360" y1="316" x2="500" y2="316" stroke="#000000"/>
<text x="430" y="307" text-anchor="middle" font-family="Arial" font-size="11" font-weight="bold">CaisseFinanciere</text><text x="368" y="332" font-family="Arial" font-size="10">+ type_caisse</text><text x="368" y="347" font-family="Arial" font-size="10">+ solde_actuel</text>
<rect x="530" y="290" width="145" height="83" fill="#fff" stroke="#000000" stroke-width="1.2"/>
<line x1="530" y1="316" x2="675" y2="316" stroke="#000000"/>
<text x="602.5" y="307" text-anchor="middle" font-family="Arial" font-size="11" font-weight="bold">MouvementFinancier</text><text x="538" y="332" font-family="Arial" font-size="10">+ type_mouvement</text><text x="538" y="347" font-family="Arial" font-size="10">+ montant</text><text x="538" y="362" font-family="Arial" font-size="10">+ solde_apres</text>
<line x1="145" y1="81.5" x2="175" y2="81.5" stroke="#000000" stroke-width="1.2"/>
<text x="148.6" y="77.5" font-family="Arial" font-size="10" font-weight="bold">1</text>
<text x="171.4" y="77.5" font-family="Arial" font-size="10" font-weight="bold">0..*</text>
<line x1="315" y1="81.5" x2="360" y2="81.5" stroke="#000000" stroke-width="1.2"/>
<text x="320.4" y="77.5" font-family="Arial" font-size="10" font-weight="bold">0..*</text>
<text x="354.6" y="77.5" font-family="Arial" font-size="10" font-weight="bold">1</text>
<line x1="485" y1="81.5" x2="530" y2="74" stroke="#000000" stroke-width="1.2"/>
<text x="490.4" y="76.6" font-family="Arial" font-size="10" font-weight="bold">1</text>
<text x="524.6" y="70.9" font-family="Arial" font-size="10" font-weight="bold">0..*</text>
<line x1="595" y1="108" x2="595" y2="165" stroke="#000000" stroke-width="1.2"/>
<text x="595" y="110.84" font-family="Arial" font-size="10" font-weight="bold">1</text>
<text x="595" y="154.16" font-family="Arial" font-size="10" font-weight="bold">0..*</text>
<line x1="245" y1="123" x2="242.5" y2="165" stroke="#000000" stroke-width="1.2"/>
<text x="244.7" y="124.03999999999999" font-family="Arial" font-size="10" font-weight="bold">1</text>
<text x="242.8" y="155.96" font-family="Arial" font-size="10" font-weight="bold">0..1</text>
<line x1="422.5" y1="123" x2="352.5" y2="165" stroke="#000000" stroke-width="1.2"/>
<text x="414.1" y="124.03999999999999" font-family="Arial" font-size="10" font-weight="bold">1</text>
<text x="360.9" y="155.96" font-family="Arial" font-size="10" font-weight="bold">0..*</text>
<line x1="422.5" y1="123" x2="502.5" y2="165" stroke="#000000" stroke-width="1.2"/>
<text x="432.1" y="124.03999999999999" font-family="Arial" font-size="10" font-weight="bold">1</text>
<text x="492.9" y="155.96" font-family="Arial" font-size="10" font-weight="bold">0..*</text>
<line x1="422.5" y1="123" x2="430" y2="290" stroke="#000000" stroke-width="1.2"/>
<text x="423.4" y="139.04" font-family="Arial" font-size="10" font-weight="bold">1</text>
<text x="429.1" y="265.96" font-family="Arial" font-size="10" font-weight="bold">1..*</text>
<line x1="500" y1="324" x2="530" y2="331.5" stroke="#000000" stroke-width="1.2"/>
<text x="503.6" y="320.9" font-family="Arial" font-size="10" font-weight="bold">1</text>
<text x="526.4" y="326.6" font-family="Arial" font-size="10" font-weight="bold">0..*</text>
</svg>