<?xml version="1.0" encoding="UTF-8"?>
<svg xmlns="http://www.w3.org/2000/svg" width="620" height="360" viewBox="0 0 620 360">
<defs>
  <marker id="arr" markerWidth="10" markerHeight="8" refX="9" refY="4" orient="auto">
    <polygon points="0 0, 10 4, 0 8" fill="#000000"/>
  </marker>
</defs>
<rect width="100%" height="100%" fill="#ffffff"/>

<rect x="160" y="30" width="480" height="300" fill="none" stroke="#333" stroke-width="1.5" rx="4"/>
<text x="400" y="52" text-anchor="middle" font-family="Arial,sans-serif" font-size="13" fill="#000" font-weight="bold"><tspan x="400" dy="0">Module Cycles</tspan></text>
<g transform="translate(50,120)">
  <circle cx="0" cy="0" r="12" fill="none" stroke="#333" stroke-width="1.5"/>
  <line x1="0" y1="12" x2="0" y2="38" stroke="#333" stroke-width="1.5"/>
  <line x1="-16" y1="22" x2="16" y2="22" stroke="#333" stroke-width="1.5"/>
  <line x1="0" y1="38" x2="-14" y2="58" stroke="#333" stroke-width="1.5"/>
  <line x1="0" y1="38" x2="14" y2="58" stroke="#333" stroke-width="1.5"/>
  <text x="0" y="78" text-anchor="middle" font-family="Arial,sans-serif" font-size="10" fill="#000"><tspan x="0" dy="0">Administrateur</tspan></text>
</g>
<ellipse cx="280" cy="80" rx="72" ry="22" fill="#f7fbff" stroke="#2563eb" stroke-width="1.5"/>
<text x="280" y="84" text-anchor="middle" font-family="Arial,sans-serif" font-size="10" fill="#000"><tspan x="280" dy="0">Créer un cycle</tspan></text><line x1="88" y1="150" x2="208" y2="80" stroke="#555" stroke-width="1"/>
<ellipse cx="280" cy="150" rx="95" ry="22" fill="#f7fbff" stroke="#2563eb" stroke-width="1.5"/>
<text x="280" y="154" text-anchor="middle" font-family="Arial,sans-serif" font-size="10" fill="#000"><tspan x="280" dy="0">Enregistrer cotisation</tspan></text><line x1="88" y1="150" x2="185" y2="150" stroke="#555" stroke-width="1"/>
<ellipse cx="280" cy="220" rx="72" ry="22" fill="#f7fbff" stroke="#2563eb" stroke-width="1.5"/>
<text x="280" y="224" text-anchor="middle" font-family="Arial,sans-serif" font-size="10" fill="#000"><tspan x="280" dy="0">Verser le pot</tspan></text><line x1="88" y1="150" x2="208" y2="220" stroke="#555" stroke-width="1"/>
<ellipse cx="480" cy="150" rx="80" ry="22" fill="#f7fbff" stroke="#2563eb" stroke-width="1.5"/>
<text x="480" y="154" text-anchor="middle" font-family="Arial,sans-serif" font-size="10" fill="#000"><tspan x="480" dy="0">Gérer échange</tspan></text><line x1="88" y1="150" x2="400" y2="150" stroke="#555" stroke-width="1"/>
</svg>