<?xml version="1.0" encoding="UTF-8"?>
<svg xmlns="http://www.w3.org/2000/svg" width="820" height="520" viewBox="0 0 820 520">
<defs>
  <marker id="arr" markerWidth="10" markerHeight="8" refX="9" refY="4" orient="auto">
    <polygon points="0 0, 10 4, 0 8" fill="#000000"/>
  </marker>
</defs>
<rect width="100%" height="100%" fill="#ffffff"/>

<rect x="180" y="40" width="580" height="440" fill="none" stroke="#333" stroke-width="1.5" rx="4"/>
<text x="470" y="62" text-anchor="middle" font-family="Arial,sans-serif" font-size="13" fill="#000" font-weight="bold"><tspan x="470" dy="0">Système E-Tontine</tspan></text>
<g transform="translate(60,180)">
  <circle cx="0" cy="0" r="12" fill="none" stroke="#333" stroke-width="1.5"/>
  <line x1="0" y1="12" x2="0" y2="38" stroke="#333" stroke-width="1.5"/>
  <line x1="-16" y1="22" x2="16" y2="22" stroke="#333" stroke-width="1.5"/>
  <line x1="0" y1="38" x2="-14" y2="58" stroke="#333" stroke-width="1.5"/>
  <line x1="0" y1="38" x2="14" y2="58" stroke="#333" stroke-width="1.5"/>
  <text x="0" y="78" text-anchor="middle" font-family="Arial,sans-serif" font-size="10" fill="#000"><tspan x="0" dy="0">Administrateur</tspan><tspan x="0" dy="12">de groupe</tspan></text>
</g>
<ellipse cx="240" cy="80" rx="100" ry="22" fill="#f7fbff" stroke="#2563eb" stroke-width="1.5"/>
<text x="240" y="84" text-anchor="middle" font-family="Arial,sans-serif" font-size="10" fill="#000"><tspan x="240" dy="0">Créer un groupe</tspan></text><line x1="88" y1="230" x2="140" y2="80" stroke="#555" stroke-width="1"/>
<ellipse cx="460" cy="80" rx="110" ry="22" fill="#f7fbff" stroke="#2563eb" stroke-width="1.5"/>
<text x="460" y="84" text-anchor="middle" font-family="Arial,sans-serif" font-size="10" fill="#000"><tspan x="460" dy="0">Gérer les membres</tspan></text><line x1="88" y1="230" x2="350" y2="80" stroke="#555" stroke-width="1"/>
<ellipse cx="240" cy="150" rx="100" ry="22" fill="#f7fbff" stroke="#2563eb" stroke-width="1.5"/>
<text x="240" y="154" text-anchor="middle" font-family="Arial,sans-serif" font-size="10" fill="#000"><tspan x="240" dy="0">Gérer les cycles</tspan></text><line x1="88" y1="230" x2="140" y2="150" stroke="#555" stroke-width="1"/>
<ellipse cx="460" cy="150" rx="110" ry="22" fill="#f7fbff" stroke="#2563eb" stroke-width="1.5"/>
<text x="460" y="154" text-anchor="middle" font-family="Arial,sans-serif" font-size="10" fill="#000"><tspan x="460" dy="0">Gérer les rubriques</tspan></text><line x1="88" y1="230" x2="350" y2="150" stroke="#555" stroke-width="1"/>
<ellipse cx="240" cy="220" rx="100" ry="22" fill="#f7fbff" stroke="#2563eb" stroke-width="1.5"/>
<text x="240" y="224" text-anchor="middle" font-family="Arial,sans-serif" font-size="10" fill="#000"><tspan x="240" dy="0">Gérer les réunions</tspan></text><line x1="88" y1="230" x2="140" y2="220" stroke="#555" stroke-width="1"/>
<ellipse cx="460" cy="220" rx="110" ry="22" fill="#f7fbff" stroke="#2563eb" stroke-width="1.5"/>
<text x="460" y="224" text-anchor="middle" font-family="Arial,sans-serif" font-size="10" fill="#000"><tspan x="460" dy="0">Gérer l'épargne</tspan></text><line x1="88" y1="230" x2="350" y2="220" stroke="#555" stroke-width="1"/>
<ellipse cx="240" cy="290" rx="100" ry="22" fill="#f7fbff" stroke="#2563eb" stroke-width="1.5"/>
<text x="240" y="294" text-anchor="middle" font-family="Arial,sans-serif" font-size="10" fill="#000"><tspan x="240" dy="0">Gérer les prêts</tspan></text><line x1="88" y1="230" x2="140" y2="290" stroke="#555" stroke-width="1"/>
<ellipse cx="460" cy="290" rx="130" ry="28" fill="#f7fbff" stroke="#2563eb" stroke-width="1.5"/>
<text x="460" y="288" text-anchor="middle" font-family="Arial,sans-serif" font-size="10" fill="#000"><tspan x="460" dy="0">Effectuer les</tspan><tspan x="460" dy="12">paiements sortants</tspan></text><line x1="88" y1="230" x2="330" y2="290" stroke="#555" stroke-width="1"/>
<ellipse cx="240" cy="360" rx="100" ry="22" fill="#f7fbff" stroke="#2563eb" stroke-width="1.5"/>
<text x="240" y="364" text-anchor="middle" font-family="Arial,sans-serif" font-size="10" fill="#000"><tspan x="240" dy="0">Consulter finances</tspan></text><line x1="88" y1="230" x2="140" y2="360" stroke="#555" stroke-width="1"/>
<ellipse cx="460" cy="360" rx="110" ry="22" fill="#f7fbff" stroke="#2563eb" stroke-width="1.5"/>
<text x="460" y="364" text-anchor="middle" font-family="Arial,sans-serif" font-size="10" fill="#000"><tspan x="460" dy="0">Générer rapports</tspan></text><line x1="88" y1="230" x2="350" y2="360" stroke="#555" stroke-width="1"/>
</svg>