<?xml version="1.0" encoding="UTF-8"?>
<svg xmlns="http://www.w3.org/2000/svg" width="900" height="400" viewBox="0 0 900 400">
<defs>
  <marker id="arr" markerWidth="9" markerHeight="7" refX="8" refY="3.5" orient="auto">
    <polygon points="0 0, 9 3.5, 0 7" fill="#111111"/>
  </marker>
  <marker id="open" markerWidth="9" markerHeight="7" refX="8" refY="3.5" orient="auto">
    <polygon points="0 0, 9 3.5, 0 7" fill="none" stroke="#111111" stroke-width="1"/>
  </marker>
</defs>
<rect width="100%" height="100%" fill="#ffffff"/>
<rect x="60" y="40" width="780" height="70" rx="6" fill="#f0f4f8" stroke="#111111" stroke-width="1.3"/><text x="130" y="79" text-anchor="start" font-family="Arial,sans-serif" font-size="12" fill="#111" font-weight="bold"><tspan x="130" dy="0">Présentation</tspan></text><text x="280" y="79" text-anchor="start" font-family="Arial,sans-serif" font-size="10" fill="#111"><tspan x="280" dy="0">Composants React, shadcn/ui, Tailwind, next-intl</tspan></text><rect x="60" y="130" width="780" height="70" rx="6" fill="#f0f4f8" stroke="#111111" stroke-width="1.3"/><text x="130" y="169" text-anchor="start" font-family="Arial,sans-serif" font-size="12" fill="#111" font-weight="bold"><tspan x="130" dy="0">Contrôleur</tspan></text><text x="280" y="169" text-anchor="start" font-family="Arial,sans-serif" font-size="10" fill="#111"><tspan x="280" dy="0">API Routes, Server Actions, validation Zod</tspan></text><rect x="60" y="220" width="780" height="70" rx="6" fill="#f0f4f8" stroke="#111111" stroke-width="1.3"/><text x="130" y="259" text-anchor="start" font-family="Arial,sans-serif" font-size="12" fill="#111" font-weight="bold"><tspan x="130" dy="0">Métier</tspan></text><text x="280" y="259" text-anchor="start" font-family="Arial,sans-serif" font-size="10" fill="#111"><tspan x="280" dy="0">lib/* (paiements, cycles, épargne, prêts, notifications)</tspan></text><rect x="60" y="310" width="780" height="70" rx="6" fill="#f0f4f8" stroke="#111111" stroke-width="1.3"/><text x="130" y="349" text-anchor="start" font-family="Arial,sans-serif" font-size="12" fill="#111" font-weight="bold"><tspan x="130" dy="0">Données</tspan></text><text x="280" y="349" text-anchor="start" font-family="Arial,sans-serif" font-size="10" fill="#111"><tspan x="280" dy="0">Prisma Client, PostgreSQL, Supabase Auth</tspan></text><line x1="450" y1="110" x2="450" y2="130" stroke="#111111" stroke-width="1.2" marker-end="url(#arr)"/><line x1="450" y1="200" x2="450" y2="220" stroke="#111111" stroke-width="1.2" marker-end="url(#arr)"/><line x1="450" y1="290" x2="450" y2="310" stroke="#111111" stroke-width="1.2" marker-end="url(#arr)"/>
</svg>