<?xml version="1.0" encoding="UTF-8"?>
<svg xmlns="http://www.w3.org/2000/svg" width="920" height="680" viewBox="0 0 920 680">
<defs>
  <marker id="arr" markerWidth="9" markerHeight="7" refX="8" refY="3.5" orient="auto">
    <polygon points="0 0, 9 3.5, 0 7" fill="#111111"/>
  </marker>
  <marker id="open" markerWidth="9" markerHeight="7" refX="8" refY="3.5" orient="auto">
    <polygon points="0 0, 9 3.5, 0 7" fill="none" stroke="#111111" stroke-width="1"/>
  </marker>
</defs>
<rect width="100%" height="100%" fill="#ffffff"/>
<text x="460" y="28" text-anchor="middle" font-family="Arial,sans-serif" font-size="13" fill="#111" font-weight="bold"><tspan x="460" dy="0">Consulter les finances et exporter un rapport</tspan></text><circle cx="70" cy="70" r="11" fill="none" stroke="#111111" stroke-width="1.4"/><line x1="70" y1="81" x2="70" y2="108" stroke="#111111" stroke-width="1.4"/><line x1="56" y1="92" x2="84" y2="92" stroke="#111111" stroke-width="1.4"/><text x="70" y="124" text-anchor="middle" font-family="Arial,sans-serif" font-size="9" fill="#111"><tspan x="70" dy="0">Admin</tspan></text><line x1="70" y1="134" x2="70" y2="644" stroke="#888" stroke-width="1" stroke-dasharray="6 5"/><rect x="210" y="56" width="110" height="42" rx="4" fill="#fff" stroke="#111111" stroke-width="1.3"/><text x="265" y="80" text-anchor="middle" font-family="Arial,sans-serif" font-size="9" fill="#111"><tspan x="265" dy="0">Page
finances</tspan></text><line x1="265" y1="134" x2="265" y2="644" stroke="#888" stroke-width="1" stroke-dasharray="6 5"/><rect x="405" y="56" width="110" height="42" rx="4" fill="#fff" stroke="#111111" stroke-width="1.3"/><text x="460" y="80" text-anchor="middle" font-family="Arial,sans-serif" font-size="9" fill="#111"><tspan x="460" dy="0">API
Rapport</tspan></text><line x1="460" y1="134" x2="460" y2="644" stroke="#888" stroke-width="1" stroke-dasharray="6 5"/><rect x="600" y="56" width="110" height="42" rx="4" fill="#fff" stroke="#111111" stroke-width="1.3"/><text x="655" y="80" text-anchor="middle" font-family="Arial,sans-serif" font-size="9" fill="#111"><tspan x="655" dy="0">Prisma</tspan></text><line x1="655" y1="134" x2="655" y2="644" stroke="#888" stroke-width="1" stroke-dasharray="6 5"/><rect x="795" y="56" width="110" height="42" rx="4" fill="#fff" stroke="#111111" stroke-width="1.3"/><text x="850" y="80" text-anchor="middle" font-family="Arial,sans-serif" font-size="9" fill="#111"><tspan x="850" dy="0">Export
PDF/Excel</tspan></text><line x1="850" y1="134" x2="850" y2="644" stroke="#888" stroke-width="1" stroke-dasharray="6 5"/><line x1="70" y1="156" x2="265" y2="156" stroke="#111111" stroke-width="1.3" marker-end="url(#arr)"/><rect x="255" y="146" width="20" height="20" fill="#fff" stroke="#111111" stroke-width="1"/><text x="167.5" y="135" text-anchor="middle" font-family="Arial,sans-serif" font-size="8.5" fill="#111"><tspan x="167.5" dy="0">Ouvrir module Finances</tspan></text><line x1="265" y1="228" x2="460" y2="228" stroke="#111111" stroke-width="1.3" marker-end="url(#arr)"/><rect x="450" y="218" width="20" height="20" fill="#fff" stroke="#111111" stroke-width="1"/><text x="362.5" y="207" text-anchor="middle" font-family="Arial,sans-serif" font-size="8.5" fill="#111"><tspan x="362.5" dy="0">GET caisses et mouvements</tspan></text><line x1="460" y1="300" x2="655" y2="300" stroke="#111111" stroke-width="1.3" marker-end="url(#arr)"/><rect x="645" y="290" width="20" height="20" fill="#fff" stroke="#111111" stroke-width="1"/><text x="557.5" y="279" text-anchor="middle" font-family="Arial,sans-serif" font-size="8.5" fill="#111"><tspan x="557.5" dy="0">Requêtes paginées Prisma</tspan></text><line x1="655" y1="372" x2="460" y2="372" stroke="#111111" stroke-width="1.3" marker-end="url(#open)" stroke-dasharray="7 5"/><text x="557.5" y="351" text-anchor="middle" font-family="Arial,sans-serif" font-size="8.5" fill="#111"><tspan x="557.5" dy="0">Données financières</tspan></text><line x1="70" y1="444" x2="265" y2="444" stroke="#111111" stroke-width="1.3" marker-end="url(#arr)"/><rect x="255" y="434" width="20" height="20" fill="#fff" stroke="#111111" stroke-width="1"/><text x="167.5" y="423" text-anchor="middle" font-family="Arial,sans-serif" font-size="8.5" fill="#111"><tspan x="167.5" dy="0">Demander export PDF/Excel</tspan></text><line x1="265" y1="516" x2="460" y2="516" stroke="#111111" stroke-width="1.3" marker-end="url(#arr)"/><rect x="450" y="506" width="20" height="20" fill="#fff" stroke="#111111" stroke-width="1"/><text x="362.5" y="495" text-anchor="middle" font-family="Arial,sans-serif" font-size="8.5" fill="#111"><tspan x="362.5" dy="0">GET /api/groups/:id/rapport</tspan></text><line x1="460" y1="588" x2="850" y2="588" stroke="#111111" stroke-width="1.3" marker-end="url(#arr)"/><rect x="840" y="578" width="20" height="20" fill="#fff" stroke="#111111" stroke-width="1"/><text x="655" y="556" text-anchor="middle" font-family="Arial,sans-serif" font-size="8.5" fill="#111"><tspan x="655" dy="0">Générer document</tspan></text><text x="655" y="567" text-anchor="middle" font-family="Arial,sans-serif" font-size="8.5" fill="#111"><tspan x="655" dy="0">(@react-pdf, xlsx)</tspan></text><line x1="850" y1="660" x2="70" y2="660" stroke="#111111" stroke-width="1.3" marker-end="url(#open)" stroke-dasharray="7 5"/><text x="460" y="639" text-anchor="middle" font-family="Arial,sans-serif" font-size="8.5" fill="#111"><tspan x="460" dy="0">Téléchargement fichier</tspan></text>
</svg>